<svg width="334" height="220" viewBox="0 0 334 220" fill="none" xmlns="http://www.w3.org/2000/svg">
<rect width="334" height="220" fill="url(#paint0_linear_103_20)"/>
<path d="M184.5 151.5H149.5V116.5H184.5M184.5 111.5H149.5C148.174 111.5 146.902 112.027 145.964 112.964C145.027 113.902 144.5 115.174 144.5 116.5V151.5C144.5 152.826 145.027 154.098 145.964 155.036C146.902 155.973 148.174 156.5 149.5 156.5H184.5C185.826 156.5 187.098 155.973 188.036 155.036C188.973 154.098 189.5 152.826 189.5 151.5V116.5C189.5 115.174 188.973 113.902 188.036 112.964C187.098 112.027 185.826 111.5 184.5 111.5ZM171.9 134.725L165.025 143.575L160.125 137.675L153.25 146.5H180.75L171.9 134.725Z" fill="white"/>
<path d="M115.191 81.7773H110.797V79.2461H115.191C115.91 79.2461 116.492 79.1289 116.938 78.8945C117.391 78.6523 117.723 78.3242 117.934 77.9102C118.145 77.4883 118.25 77.0078 118.25 76.4688C118.25 75.9453 118.145 75.457 117.934 75.0039C117.723 74.5508 117.391 74.1836 116.938 73.9023C116.492 73.6211 115.91 73.4805 115.191 73.4805H111.852V88H108.629V70.9375H115.191C116.52 70.9375 117.652 71.1758 118.59 71.6523C119.535 72.1211 120.254 72.7734 120.746 73.6094C121.246 74.4375 121.496 75.3828 121.496 76.4453C121.496 77.5469 121.246 78.4961 120.746 79.293C120.254 80.0898 119.535 80.7031 118.59 81.1328C117.652 81.5625 116.52 81.7773 115.191 81.7773ZM123.078 81.7891V81.543C123.078 80.6133 123.211 79.7578 123.477 78.9766C123.742 78.1875 124.129 77.5039 124.637 76.9258C125.145 76.3477 125.766 75.8984 126.5 75.5781C127.234 75.25 128.07 75.0859 129.008 75.0859C129.961 75.0859 130.805 75.25 131.539 75.5781C132.281 75.8984 132.906 76.3477 133.414 76.9258C133.922 77.5039 134.309 78.1875 134.574 78.9766C134.84 79.7578 134.973 80.6133 134.973 81.543V81.7891C134.973 82.7109 134.84 83.5664 134.574 84.3555C134.309 85.1367 133.922 85.8203 133.414 86.4062C132.906 86.9844 132.285 87.4336 131.551 87.7539C130.816 88.0742 129.977 88.2344 129.031 88.2344C128.094 88.2344 127.254 88.0742 126.512 87.7539C125.77 87.4336 125.145 86.9844 124.637 86.4062C124.129 85.8203 123.742 85.1367 123.477 84.3555C123.211 83.5664 123.078 82.7109 123.078 81.7891ZM126.172 81.543V81.7891C126.172 82.3438 126.227 82.8633 126.336 83.3477C126.445 83.832 126.613 84.2578 126.84 84.625C127.066 84.9922 127.359 85.2812 127.719 85.4922C128.086 85.6953 128.523 85.7969 129.031 85.7969C129.531 85.7969 129.961 85.6953 130.32 85.4922C130.68 85.2812 130.973 84.9922 131.199 84.625C131.434 84.2578 131.605 83.832 131.715 83.3477C131.824 82.8633 131.879 82.3438 131.879 81.7891V81.543C131.879 80.9961 131.824 80.4844 131.715 80.0078C131.605 79.5234 131.434 79.0977 131.199 78.7305C130.973 78.3555 130.676 78.0625 130.309 77.8516C129.949 77.6328 129.516 77.5234 129.008 77.5234C128.508 77.5234 128.078 77.6328 127.719 77.8516C127.359 78.0625 127.066 78.3555 126.84 78.7305C126.613 79.0977 126.445 79.5234 126.336 80.0078C126.227 80.4844 126.172 80.9961 126.172 81.543ZM144.195 84.5312C144.195 84.2656 144.125 84.0273 143.984 83.8164C143.844 83.6055 143.578 83.4141 143.188 83.2422C142.805 83.0625 142.242 82.8945 141.5 82.7383C140.844 82.5977 140.238 82.4219 139.684 82.2109C139.129 82 138.652 81.7461 138.254 81.4492C137.855 81.1445 137.543 80.7891 137.316 80.3828C137.098 79.9688 136.988 79.4922 136.988 78.9531C136.988 78.4297 137.102 77.9375 137.328 77.4766C137.555 77.0078 137.883 76.5977 138.312 76.2461C138.742 75.8867 139.266 75.6055 139.883 75.4023C140.5 75.1914 141.195 75.0859 141.969 75.0859C143.047 75.0859 143.973 75.2617 144.746 75.6133C145.527 75.9648 146.125 76.4492 146.539 77.0664C146.953 77.6758 147.16 78.3633 147.16 79.1289H144.066C144.066 78.793 143.988 78.4883 143.832 78.2148C143.684 77.9414 143.453 77.7227 143.141 77.5586C142.828 77.3867 142.434 77.3008 141.957 77.3008C141.527 77.3008 141.164 77.3711 140.867 77.5117C140.578 77.6523 140.359 77.8359 140.211 78.0625C140.062 78.2891 139.988 78.5391 139.988 78.8125C139.988 79.0156 140.027 79.1992 140.105 79.3633C140.191 79.5195 140.328 79.6641 140.516 79.7969C140.703 79.9297 140.957 80.0508 141.277 80.1602C141.605 80.2695 142.008 80.375 142.484 80.4766C143.43 80.6641 144.254 80.9141 144.957 81.2266C145.668 81.5312 146.223 81.9375 146.621 82.4453C147.02 82.9531 147.219 83.6016 147.219 84.3906C147.219 84.9531 147.098 85.4688 146.855 85.9375C146.613 86.3984 146.262 86.8008 145.801 87.1445C145.34 87.4883 144.789 87.7578 144.148 87.9531C143.508 88.1406 142.785 88.2344 141.98 88.2344C140.816 88.2344 139.832 88.0273 139.027 87.6133C138.223 87.1914 137.613 86.6602 137.199 86.0195C136.785 85.3711 136.578 84.6992 136.578 84.0039H139.543C139.566 84.4961 139.699 84.8906 139.941 85.1875C140.184 85.4844 140.488 85.6992 140.855 85.832C141.23 85.957 141.625 86.0195 142.039 86.0195C142.508 86.0195 142.902 85.957 143.223 85.832C143.543 85.6992 143.785 85.5234 143.949 85.3047C144.113 85.0781 144.195 84.8203 144.195 84.5312ZM155.574 75.3203V77.5469H148.309V75.3203H155.574ZM150.254 72.2031H153.359V84.3438C153.359 84.7188 153.41 85.0078 153.512 85.2109C153.613 85.4141 153.766 85.5508 153.969 85.6211C154.172 85.6914 154.414 85.7266 154.695 85.7266C154.898 85.7266 155.086 85.7148 155.258 85.6914C155.43 85.668 155.574 85.6445 155.691 85.6211L155.703 87.9414C155.445 88.0273 155.152 88.0977 154.824 88.1523C154.504 88.207 154.141 88.2344 153.734 88.2344C153.039 88.2344 152.43 88.1172 151.906 87.8828C151.383 87.6406 150.977 87.2539 150.688 86.7227C150.398 86.1836 150.254 85.4727 150.254 84.5898V72.2031ZM163.332 88.2344C162.371 88.2344 161.508 88.0781 160.742 87.7656C159.977 87.4531 159.324 87.0195 158.785 86.4648C158.254 85.9023 157.844 85.25 157.555 84.5078C157.273 83.7578 157.133 82.9531 157.133 82.0938V81.625C157.133 80.6484 157.273 79.7617 157.555 78.9648C157.836 78.1602 158.234 77.4688 158.75 76.8906C159.266 76.3125 159.883 75.8672 160.602 75.5547C161.32 75.2422 162.113 75.0859 162.98 75.0859C163.879 75.0859 164.672 75.2383 165.359 75.543C166.047 75.8398 166.621 76.2617 167.082 76.8086C167.543 77.3555 167.891 78.0117 168.125 78.7773C168.359 79.5352 168.477 80.375 168.477 81.2969V82.5977H158.539V80.4648H165.43V80.2305C165.414 79.7383 165.32 79.2891 165.148 78.8828C164.977 78.4688 164.711 78.1406 164.352 77.8984C163.992 77.6484 163.527 77.5234 162.957 77.5234C162.496 77.5234 162.094 77.625 161.75 77.8281C161.414 78.0234 161.133 78.3047 160.906 78.6719C160.688 79.0312 160.523 79.4609 160.414 79.9609C160.305 80.4609 160.25 81.0156 160.25 81.625V82.0938C160.25 82.625 160.32 83.1172 160.461 83.5703C160.609 84.0234 160.824 84.418 161.105 84.7539C161.395 85.082 161.738 85.3398 162.137 85.5273C162.543 85.707 163.004 85.7969 163.52 85.7969C164.168 85.7969 164.754 85.6719 165.277 85.4219C165.809 85.1641 166.27 84.7852 166.66 84.2852L168.219 85.9023C167.953 86.293 167.594 86.668 167.141 87.0273C166.695 87.3867 166.156 87.6797 165.523 87.9062C164.891 88.125 164.16 88.2344 163.332 88.2344ZM173.645 77.9102V88H170.551V75.3203H173.48L173.645 77.9102ZM177.5 75.2383L177.453 78.1211C177.281 78.0898 177.086 78.0664 176.867 78.0508C176.656 78.0352 176.457 78.0273 176.27 78.0273C175.793 78.0273 175.375 78.0938 175.016 78.2266C174.656 78.3516 174.355 78.5352 174.113 78.7773C173.879 79.0195 173.699 79.3164 173.574 79.668C173.449 80.0117 173.379 80.4023 173.363 80.8398L172.695 80.7578C172.695 79.9531 172.777 79.207 172.941 78.5195C173.105 77.832 173.344 77.2305 173.656 76.7148C173.969 76.1992 174.359 75.8008 174.828 75.5195C175.305 75.2305 175.852 75.0859 176.469 75.0859C176.641 75.0859 176.824 75.1016 177.02 75.1328C177.223 75.1562 177.383 75.1914 177.5 75.2383ZM199.121 70.9375V88H195.887L188.633 76.1641V88H185.41V70.9375H188.633L195.91 82.7852V70.9375H199.121ZM209.504 70.9375L203.059 89.4648H200.703L207.148 70.9375H209.504ZM218.328 73.5273L213.465 88H210.055L216.43 70.9375H218.609L218.328 73.5273ZM222.395 88L217.508 73.5273L217.215 70.9375H219.406L225.816 88H222.395ZM222.172 81.6602V84.2031H213.02V81.6602H222.172Z" fill="white"/>
<defs>
<linearGradient id="paint0_linear_103_20" x1="0" y1="0" x2="334" y2="220" gradientUnits="userSpaceOnUse">
<stop stop-color="#12C2E9" stop-opacity="0.8"/>
<stop offset="0.5268" stop-color="#C471ED" stop-opacity="0.8"/>
<stop offset="1" stop-color="#F64F59" stop-opacity="0.8"/>
</linearGradient>
</defs>
</svg>
